<svg width="16" height="15" viewBox="0 0 16 15" fill="none" xmlns="http://www.w3.org/2000/svg">
<path d="M0.0434126 0.154974C0.148495 0.383355 1.33943 1.67208 1.9419 2.20225C2.79657 2.9608 3.82638 3.74382 4.42885 4.08639L4.98929 4.41265L8.49203 4.92651C13.2978 5.64428 13.571 5.68506 13.571 5.64428C13.571 5.55456 12.9685 4.43712 12.7934 4.20874C12.6813 4.05377 12.4221 3.85801 12.219 3.76829C12.0228 3.67041 10.5657 3.20549 8.98242 2.73242C7.40618 2.25119 4.7441 1.4437 3.07679 0.929839C1.40948 0.415981 0.0294016 9.53674e-07 0.00838514 9.53674e-07C-0.0126313 9.53674e-07 0.00838514 0.0652528 0.0434126 0.154974Z" fill="url(#paint0_linear_138_17039)"/>
<path d="M3.44114 5.17125C4.0296 5.81562 5.0454 6.67204 5.90007 7.23484C7.22411 8.11574 7.11902 8.09943 10.874 7.95261C12.6113 7.8792 14.1315 7.80579 14.2506 7.78132L14.4818 7.74054L14.3067 7.34088C14.0685 6.79439 13.7462 6.38657 13.48 6.28869C13.2628 6.21528 12.4782 6.08478 6.18029 5.13863C4.68111 4.91025 3.33606 4.70634 3.20296 4.68187L2.95776 4.64108L3.44114 5.17125Z" fill="url(#paint1_linear_138_17039)"/>
<path d="M9.64799 8.54806C7.54634 8.66225 5.81599 8.76828 5.80198 8.78459C5.69689 8.88247 7.41324 9.89387 8.2539 10.2283C9.17862 10.5953 9.655 10.6361 10.4957 10.4404C11.6516 10.1712 14.8531 9.38002 14.9932 9.33108C15.1053 9.29029 15.1053 9.26583 14.9581 8.95588C14.8671 8.77644 14.72 8.55621 14.6289 8.47465C14.4257 8.28705 14.6149 8.27889 9.64799 8.54806Z" fill="url(#paint2_linear_138_17039)"/>
<path d="M14.4887 9.77965C14.3976 9.80412 14.2925 9.88568 14.2645 9.95093C14.2014 10.0978 14.0403 14.9264 14.0964 14.9916C14.2014 15.114 15.0981 13.866 15.4344 13.132C16.142 11.5904 16.163 11.3783 15.6236 10.3506L15.2873 9.70624L14.972 9.7144C14.7969 9.72255 14.5797 9.74702 14.4887 9.77965Z" fill="url(#paint3_linear_138_17039)"/>
<path d="M13.4658 10.0815C12.7443 10.2528 12.5901 10.3099 12.478 10.4485C12.3379 10.628 11.5954 13.9721 11.6864 14.0129C11.8055 14.07 12.401 13.654 12.7232 13.287C13.2627 12.6671 13.662 11.5986 13.8091 10.3751C13.8581 10.0081 13.8371 9.99992 13.4658 10.0815Z" fill="url(#paint4_linear_138_17039)"/>
<path d="M11.4064 10.6931C10.7969 10.9378 10.5937 11.1825 10.2435 12.0308C9.9002 12.8627 9.87218 12.9688 10.0333 12.9688C10.4887 12.9688 11.3924 12.0797 11.6936 11.3375C12.0579 10.4484 12.0439 10.4239 11.4064 10.6931Z" fill="url(#paint5_linear_138_17039)"/>
<defs>
<linearGradient id="paint0_linear_138_17039" x1="6.78552" y1="17.7795" x2="6.78552" y2="-4.67513" gradientUnits="userSpaceOnUse">
<stop offset="0.25" stop-color="#FAA819"/>
<stop offset="0.75" stop-color="#F47B20"/>
</linearGradient>
<linearGradient id="paint1_linear_138_17039" x1="3.12934" y1="6.33495" x2="15.0905" y2="6.33495" gradientUnits="userSpaceOnUse">
<stop offset="0.25" stop-color="#DA471F"/>
<stop offset="0.75" stop-color="#B23916"/>
</linearGradient>
<linearGradient id="paint2_linear_138_17039" x1="10.4353" y1="15.3092" x2="10.4353" y2="6.50641" gradientUnits="userSpaceOnUse">
<stop offset="0.25" stop-color="#FAA819"/>
<stop offset="0.75" stop-color="#F47B20"/>
</linearGradient>
<linearGradient id="paint3_linear_138_17039" x1="14.1132" y1="12.3531" x2="16.1011" y2="12.3531" gradientUnits="userSpaceOnUse">
<stop offset="0.25" stop-color="#DA471F"/>
<stop offset="0.75" stop-color="#B23916"/>
</linearGradient>
<linearGradient id="paint4_linear_138_17039" x1="12.7536" y1="22.5482" x2="12.7536" y2="6.75032" gradientUnits="userSpaceOnUse">
<stop offset="0.25" stop-color="#FAA819"/>
<stop offset="0.75" stop-color="#F47B20"/>
</linearGradient>
<linearGradient id="paint5_linear_138_17039" x1="9.96819" y1="11.7558" x2="12.0397" y2="11.7558" gradientUnits="userSpaceOnUse">
<stop offset="0.25" stop-color="#DA471F"/>
<stop offset="0.75" stop-color="#B23916"/>
</linearGradient>
</defs>
</svg>
