<svg width="24" height="25" viewBox="0 0 24 25" fill="none" xmlns="http://www.w3.org/2000/svg">
<path d="M10.875 7.93457C10.7812 7.84082 10.668 7.7666 10.5352 7.71191C10.4023 7.65723 10.2656 7.62988 10.125 7.62988C9.8125 7.62988 9.54688 7.73926 9.32812 7.95801C9.10938 8.17676 9 8.44238 9 8.75488C9 8.92676 9.03125 9.08301 9.09375 9.22363C9.15625 9.36426 9.25 9.48145 9.375 9.5752L12.9609 12.8799L9.375 16.1846C9.25 16.2783 9.15625 16.3994 9.09375 16.5479C9.03125 16.6963 9 16.8486 9 17.0049C9 17.3174 9.10938 17.583 9.32812 17.8018C9.54688 18.0205 9.8125 18.1299 10.125 18.1299C10.2656 18.1299 10.4023 18.1025 10.5352 18.0479C10.668 17.9932 10.7812 17.9189 10.875 17.8252L15.375 13.7002C15.5 13.6064 15.5938 13.4854 15.6562 13.3369C15.7188 13.1885 15.75 13.0361 15.75 12.8799C15.75 12.7236 15.7188 12.5713 15.6562 12.4229C15.5938 12.2744 15.5 12.1533 15.375 12.0596L10.875 7.93457ZM12 0.879883C10.3438 0.879883 8.78906 1.19238 7.33594 1.81738C5.86719 2.44238 4.58984 3.29785 3.50391 4.38379C2.41797 5.46973 1.5625 6.74707 0.9375 8.21582C0.3125 9.66895 0 11.2236 0 12.8799C0 14.5361 0.3125 16.0908 0.9375 17.5439C1.5625 19.0127 2.41797 20.29 3.50391 21.376C4.58984 22.4619 5.86719 23.3174 7.33594 23.9424C8.78906 24.5674 10.3438 24.8799 12 24.8799C13.6562 24.8799 15.2109 24.5674 16.6641 23.9424C18.1328 23.3174 19.4102 22.4619 20.4961 21.376C21.582 20.29 22.4375 19.0127 23.0625 17.5439C23.6875 16.0908 24 14.5361 24 12.8799C24 11.2236 23.6875 9.66895 23.0625 8.21582C22.4375 6.74707 21.582 5.46973 20.4961 4.38379C19.4102 3.29785 18.1328 2.44238 16.6641 1.81738C15.2109 1.19238 13.6562 0.879883 12 0.879883ZM12 22.6299C10.6562 22.6299 9.39062 22.3721 8.20312 21.8564C7.01562 21.3564 5.98047 20.665 5.09766 19.7822C4.21484 18.8994 3.52344 17.8643 3.02344 16.6768C2.50781 15.4893 2.25 14.2236 2.25 12.8799C2.25 11.5361 2.50781 10.2705 3.02344 9.08301C3.52344 7.91113 4.21484 6.87988 5.09766 5.98926C5.98047 5.09863 7.01562 4.40332 8.20312 3.90332C9.39062 3.3877 10.6562 3.12988 12 3.12988C13.3438 3.12988 14.6094 3.3877 15.7969 3.90332C16.9844 4.40332 18.0195 5.09863 18.9023 5.98926C19.7852 6.87988 20.4766 7.91113 20.9766 9.08301C21.4922 10.2705 21.75 11.5361 21.75 12.8799C21.75 14.2236 21.4922 15.4893 20.9766 16.6768C20.4766 17.8643 19.7852 18.8994 18.9023 19.7822C18.0195 20.665 16.9844 21.3564 15.7969 21.8564C14.6094 22.3721 13.3438 22.6299 12 22.6299Z" fill="#AAAAAA"/>
</svg>
