<svg width="24" height="25" viewBox="0 0 24 25" fill="none" xmlns="http://www.w3.org/2000/svg">
<path d="M13.875 7.62988C13.7344 7.62988 13.5977 7.65723 13.4648 7.71191C13.332 7.7666 13.2188 7.84082 13.125 7.93457L8.625 12.0596C8.5 12.1533 8.40625 12.2744 8.34375 12.4229C8.28125 12.5713 8.25 12.7236 8.25 12.8799C8.25 13.0361 8.28125 13.1885 8.34375 13.3369C8.40625 13.4854 8.5 13.6064 8.625 13.7002L13.125 17.8252C13.2188 17.9189 13.332 17.9932 13.4648 18.0479C13.5977 18.1025 13.7344 18.1299 13.875 18.1299C14.1875 18.1299 14.4531 18.0205 14.6719 17.8018C14.8906 17.583 15 17.3174 15 17.0049C15 16.833 14.9688 16.6768 14.9062 16.5361C14.8438 16.3955 14.75 16.2783 14.625 16.1846L11.0391 12.8799L14.625 9.5752C14.75 9.48145 14.8438 9.36426 14.9062 9.22363C14.9688 9.08301 15 8.92676 15 8.75488C15 8.44238 14.8906 8.17676 14.6719 7.95801C14.4531 7.73926 14.1875 7.62988 13.875 7.62988ZM12 0.879883C10.3438 0.879883 8.78906 1.19238 7.33594 1.81738C5.86719 2.44238 4.58984 3.29785 3.50391 4.38379C2.41797 5.46973 1.5625 6.74707 0.9375 8.21582C0.3125 9.66895 0 11.2236 0 12.8799C0 14.5361 0.3125 16.0908 0.9375 17.5439C1.5625 19.0127 2.41797 20.29 3.50391 21.376C4.58984 22.4619 5.86719 23.3174 7.33594 23.9424C8.78906 24.5674 10.3438 24.8799 12 24.8799C13.6562 24.8799 15.2109 24.5674 16.6641 23.9424C18.1328 23.3174 19.4102 22.4619 20.4961 21.376C21.582 20.29 22.4375 19.0127 23.0625 17.5439C23.6875 16.0908 24 14.5361 24 12.8799C24 11.2236 23.6875 9.66895 23.0625 8.21582C22.4375 6.74707 21.582 5.46973 20.4961 4.38379C19.4102 3.29785 18.1328 2.44238 16.6641 1.81738C15.2109 1.19238 13.6562 0.879883 12 0.879883ZM12 22.6299C10.6562 22.6299 9.39062 22.3721 8.20312 21.8564C7.01562 21.3564 5.98047 20.665 5.09766 19.7822C4.21484 18.8994 3.52344 17.8643 3.02344 16.6768C2.50781 15.4893 2.25 14.2236 2.25 12.8799C2.25 11.5361 2.50781 10.2705 3.02344 9.08301C3.52344 7.91113 4.21484 6.87988 5.09766 5.98926C5.98047 5.09863 7.01562 4.40332 8.20312 3.90332C9.39062 3.3877 10.6562 3.12988 12 3.12988C13.3438 3.12988 14.6094 3.3877 15.7969 3.90332C16.9844 4.40332 18.0195 5.09863 18.9023 5.98926C19.7852 6.87988 20.4766 7.91113 20.9766 9.08301C21.4922 10.2705 21.75 11.5361 21.75 12.8799C21.75 14.2236 21.4922 15.4893 20.9766 16.6768C20.4766 17.8643 19.7852 18.8994 18.9023 19.7822C18.0195 20.665 16.9844 21.3564 15.7969 21.8564C14.6094 22.3721 13.3438 22.6299 12 22.6299Z" fill="#AAAAAA"/>
</svg>
