<svg width="30" height="40" viewBox="0 0 30 40" fill="none" xmlns="http://www.w3.org/2000/svg">
<path d="M26.25 5C28.2812 5 30 6.71875 30 8.75V36.25C30 38.3594 28.2812 40 26.25 40H3.75C1.64062 40 0 38.3594 0 36.25V8.75C0 6.71875 1.64062 5 3.75 5H10C10 2.26562 12.1875 0 15 0C17.7344 0 20 2.26562 20 5H26.25ZM15 3.125C13.9062 3.125 13.125 3.98438 13.125 5C13.125 6.09375 13.9062 6.875 15 6.875C16.0156 6.875 16.875 6.09375 16.875 5C16.875 3.98438 16.0156 3.125 15 3.125ZM26.25 35.7812V9.21875C26.25 8.98438 26.0156 8.75 25.7812 8.75H22.5V11.5625C22.5 12.1094 22.0312 12.5 21.5625 12.5H8.4375C7.89062 12.5 7.5 12.1094 7.5 11.5625V8.75H4.21875C3.90625 8.75 3.75 8.98438 3.75 9.21875V35.7812C3.75 36.0938 3.90625 36.25 4.21875 36.25H25.7812C26.0156 36.25 26.25 36.0938 26.25 35.7812Z" fill="#0B66C3"/>
</svg>
