<svg width="41" height="42" viewBox="0 0 41 42" fill="none" xmlns="http://www.w3.org/2000/svg">
<path d="M23.5 14.125C19.5156 13.2656 15.9219 11.2344 13.2656 8.26562C14.125 5.6875 15.4531 3.42188 17.0938 1.46875C17.7188 0.6875 19.0469 1.07812 19.2031 2.09375C19.75 5.6875 21.2344 9.04688 23.5 11.9375V14.125ZM32.25 6H41L38.5 11V23.5781C38.5 30.4531 32.875 36 26 36H19.9844L14.8281 40.4531C14.3594 40.8438 13.7344 41.0781 13.1094 41C5.92188 40.7656 2.5625 37.1719 1.15625 35.0625C0.6875 34.3594 1.07812 33.3438 1.9375 33.1875L13.1875 30.375C12.1719 29.5938 11.1562 28.8125 10.1406 27.7969C6.15625 23.9688 3.5 18.8125 3.5 13.2656C3.5 10.0625 4.20312 6.9375 5.53125 4.20312C5.92188 3.26562 7.32812 3.34375 7.79688 4.28125C10.9219 11.3906 17.7969 16.4688 26 16.9375V12.3281C26 8.8125 28.7344 6 32.25 6ZM32.25 13.5781C32.875 13.5781 33.5 12.9531 33.5 12.3281C33.5 11.625 32.875 11.0781 32.25 11.0781C31.5469 11.0781 31 11.625 31 12.3281C31 12.9531 31.5469 13.5781 32.25 13.5781Z" fill="#0B66C3"/>
</svg>
