<svg width="50" height="30" viewBox="0 0 50 30" fill="none" xmlns="http://www.w3.org/2000/svg">
<path d="M25 6.25C29.1406 6.25 32.5 10.2344 32.5 15C32.5 19.8438 29.1406 23.75 25 23.75C20.7812 23.75 17.5 19.8438 17.5 15C17.5 10.2344 20.7812 6.25 25 6.25ZM28.125 19.375V18.125C28.125 17.8125 27.8125 17.5 27.5 17.5H26.25V10.625C26.25 10.3125 25.9375 10 25.625 10H24.5312C24.1406 10 23.75 10.1562 23.5156 10.3906L22.2656 11.1719C22.1094 11.25 22.0312 11.4844 22.0312 11.6406C22.0312 11.7969 22.0312 11.9531 22.1094 12.0312L22.8125 13.0469C22.8906 13.2031 23.125 13.3594 23.3594 13.3594C23.4375 13.3594 23.5938 13.2812 23.6719 13.2031H23.75V17.5H22.5C22.1094 17.5 21.875 17.8125 21.875 18.125V19.375C21.875 19.7656 22.1094 20 22.5 20H27.5C27.8125 20 28.125 19.7656 28.125 19.375ZM47.5 0C48.8281 0 50 1.17188 50 2.5V27.5C50 28.9062 48.8281 30 47.5 30H2.5C1.09375 30 0 28.9062 0 27.5V2.5C0 1.17188 1.09375 0 2.5 0H47.5ZM46.25 21.25V8.75C43.4375 8.75 41.25 6.5625 41.25 3.75H8.75C8.75 6.5625 6.48438 8.75 3.75 8.75V21.25C6.48438 21.25 8.75 23.5156 8.75 26.25H41.25C41.25 23.5156 43.4375 21.25 46.25 21.25Z" fill="#0B66C3"/>
</svg>
