<svg width="52" height="42" viewBox="0 0 52 42" fill="none" xmlns="http://www.w3.org/2000/svg">
<path d="M39.125 16C40.1406 16 41 16.8594 41 17.875V21.625C41 22.7188 40.1406 23.5 39.125 23.5H38.5V28.5C38.5 29.9062 37.3281 31 36 31H34.75C34.75 33.8125 32.4844 36 29.75 36H19.0469L11 40.6875C9.75 41.3906 8.26562 41 7.5625 39.75L1.3125 28.9688C0.609375 27.7969 1 26.2344 2.25 25.5312L8.5 21.9375V18.2656C8.5 16.4688 9.35938 14.8281 10.9219 13.9688L16 10.9219V20.375C16 23.5 18.5 26 21.625 26C24.6719 26 27.25 23.5 27.25 20.375V16H39.125ZM50.6094 13.1094C51.3125 14.2812 50.9219 15.8438 49.75 16.5469L43.5 20.1406V17.875C43.5 15.5312 41.4688 13.5 39.125 13.5H24.75V20.375C24.75 22.1719 23.3438 23.5 21.625 23.5C19.8281 23.5 18.5 22.1719 18.5 20.375V10.5312C18.5 9.67188 18.8906 8.89062 19.6719 8.42188L22.25 6.78125C23.0312 6.3125 23.9688 6 24.9062 6H32.875L41 1.39062C42.1719 0.6875 43.6562 1.07812 44.3594 2.25L50.6094 13.1094Z" fill="#0B66C3"/>
</svg>
