<svg width="24" height="36" viewBox="0 0 24 36" fill="none" xmlns="http://www.w3.org/2000/svg">
<g clip-path="url(#clip0_422_446)">
<g clip-path="url(#clip1_422_446)">
<path d="M9.80443 7.79994L7.11643 13.4879L1.11643 14.3999C0.796429 14.4319 0.528429 14.5919 0.312429 14.8799C0.0964286 15.1679 -0.00757143 15.4959 0.000428571 15.8639C0.00842857 16.2319 0.140429 16.5439 0.396429 16.7999L4.71643 21.1919L3.70843 27.5039C3.64443 27.8559 3.70843 28.1719 3.90043 28.4519C4.09243 28.7319 4.35243 28.9159 4.68043 29.0039C5.00843 29.0919 5.31643 29.0559 5.60443 28.8959L11.0044 26.0879L16.4044 28.8959C16.7244 29.0559 17.0484 29.0919 17.3764 29.0039C17.7044 28.9159 17.9564 28.7319 18.1324 28.4519C18.3084 28.1719 18.3644 27.8559 18.3004 27.5039L17.3164 21.1919L21.6124 16.7999C21.8684 16.5439 22.0004 16.2399 22.0084 15.8879C22.0164 15.5359 21.9164 15.2159 21.7084 14.9279C21.5004 14.6399 21.2364 14.4639 20.9164 14.3999L14.9164 13.4879L12.2044 7.79994C12.0444 7.47994 11.8044 7.25994 11.4844 7.13994C11.1644 7.01994 10.8444 7.01994 10.5244 7.13994C10.2044 7.25994 9.96443 7.47994 9.80443 7.79994Z" fill="#0B66C3"/>
</g>
</g>
<g clip-path="url(#clip2_422_446)">
<path d="M20.9297 14.4L14.9297 13.488L12.2177 7.8C12.0577 7.48 11.8177 7.26 11.4977 7.14C11.1777 7.02 10.8577 7.02 10.5377 7.14C10.2177 7.26 9.97771 7.48 9.81771 7.8L7.12971 13.488L1.12971 14.4C0.777714 14.464 0.497714 14.628 0.289714 14.892C0.0817143 15.156 -0.0142857 15.456 0.00171429 15.792C0.0177143 16.128 0.153714 16.432 0.409714 16.704L4.72971 21.096L3.72171 27.312C3.65771 27.664 3.72571 27.984 3.92571 28.272C4.12571 28.56 4.38571 28.752 4.70571 28.848C5.02571 28.944 5.32971 28.896 5.61771 28.704L11.0177 25.8L16.4177 28.704C16.7377 28.864 17.0617 28.9 17.3897 28.812C17.7177 28.724 17.9697 28.54 18.1457 28.26C18.3217 27.98 18.3777 27.664 18.3137 27.312L17.3297 21.096L21.6257 16.704C21.8817 16.448 22.0137 16.144 22.0217 15.792C22.0297 15.44 21.9297 15.128 21.7217 14.856C21.5137 14.584 21.2497 14.432 20.9297 14.4ZM15.1217 20.4L16.1297 26.304L11.0177 23.496L5.92971 26.304L6.91371 20.4L2.80971 16.2L8.52171 15.288L11.0177 10.008L13.6097 15.408L19.3217 16.296L15.1217 20.4Z" fill="#CCD6DF"/>
</g>
<defs>
<clipPath id="clip0_422_446">
<rect width="24" height="36" fill="white"/>
</clipPath>
<clipPath id="clip1_422_446">
<rect width="24" height="36" fill="white" transform="matrix(1 0 0 -1 0 36)"/>
</clipPath>
<clipPath id="clip2_422_446">
<rect width="24" height="24" fill="white" transform="matrix(1 0 0 -1 0 30)"/>
</clipPath>
</defs>
</svg>
