<svg width="16" height="15" fill="none" xmlns="http://www.w3.org/2000/svg"><path d="M.043.155C.148.383 1.34 1.672 1.942 2.202c.855.759 1.884 1.542 2.487 1.884l.56.327 3.503.514c4.806.717 5.079.758 5.079.717 0-.09-.602-1.207-.778-1.435-.112-.155-.37-.351-.574-.44-.196-.099-1.653-.564-3.237-1.037C7.406 2.252 4.744 1.444 3.077.93 1.409.416.029 0 .008 0c-.02 0 0 .065.035.155z" fill="url(#paint0_linear_138_17039)"/><path d="M3.441 5.171c.589.645 1.604 1.501 2.46 2.064 1.323.88 1.218.864 4.973.718 1.737-.074 3.258-.147 3.377-.172l.23-.04-.174-.4c-.239-.547-.56-.954-.827-1.052-.217-.074-1.002-.204-7.3-1.15-1.499-.229-2.844-.433-2.977-.457l-.245-.04.483.53z" fill="url(#paint1_linear_138_17039)"/><path d="M9.648 8.548c-2.102.114-3.832.22-3.846.237-.105.097 1.611 1.109 2.452 1.443.925.367 1.401.408 2.242.212 1.156-.269 4.357-1.06 4.497-1.109.112-.04.112-.065-.035-.375-.09-.18-.238-.4-.33-.481-.202-.188-.013-.196-4.98.073z" fill="url(#paint2_linear_138_17039)"/><path d="M14.489 9.78c-.091.024-.197.106-.225.17-.063.148-.224 4.976-.168 5.042.105.122 1.002-1.126 1.338-1.86.708-1.542.729-1.754.19-2.781l-.337-.645-.315.008a2.205 2.205 0 00-.483.066z" fill="url(#paint3_linear_138_17039)"/><path d="M13.466 10.082c-.722.17-.876.228-.988.366-.14.18-.883 3.524-.792 3.565.12.057.715-.359 1.037-.726.54-.62.939-1.688 1.086-2.912.05-.367.028-.375-.343-.293z" fill="url(#paint4_linear_138_17039)"/><path d="M11.406 10.693c-.61.245-.812.49-1.163 1.338-.343.832-.37.938-.21.938.456 0 1.36-.89 1.66-1.631.365-.89.35-.914-.287-.645z" fill="url(#paint5_linear_138_17039)"/><defs><linearGradient id="paint0_linear_138_17039" x1="6.786" y1="17.779" x2="6.786" y2="-4.675" gradientUnits="userSpaceOnUse"><stop offset=".25" stop-color="#FAA819"/><stop offset=".75" stop-color="#F47B20"/></linearGradient><linearGradient id="paint1_linear_138_17039" x1="3.129" y1="6.335" x2="15.091" y2="6.335" gradientUnits="userSpaceOnUse"><stop offset=".25" stop-color="#DA471F"/><stop offset=".75" stop-color="#B23916"/></linearGradient><linearGradient id="paint2_linear_138_17039" x1="10.435" y1="15.309" x2="10.435" y2="6.506" gradientUnits="userSpaceOnUse"><stop offset=".25" stop-color="#FAA819"/><stop offset=".75" stop-color="#F47B20"/></linearGradient><linearGradient id="paint3_linear_138_17039" x1="14.113" y1="12.353" x2="16.101" y2="12.353" gradientUnits="userSpaceOnUse"><stop offset=".25" stop-color="#DA471F"/><stop offset=".75" stop-color="#B23916"/></linearGradient><linearGradient id="paint4_linear_138_17039" x1="12.754" y1="22.548" x2="12.754" y2="6.75" gradientUnits="userSpaceOnUse"><stop offset=".25" stop-color="#FAA819"/><stop offset=".75" stop-color="#F47B20"/></linearGradient><linearGradient id="paint5_linear_138_17039" x1="9.968" y1="11.756" x2="12.04" y2="11.756" gradientUnits="userSpaceOnUse"><stop offset=".25" stop-color="#DA471F"/><stop offset=".75" stop-color="#B23916"/></linearGradient></defs></svg>