<svg width="24" height="25" fill="none" xmlns="http://www.w3.org/2000/svg"><path d="M13.875 7.63c-.14 0-.277.027-.41.082a1.028 1.028 0 00-.34.223l-4.5 4.125a.864.864 0 00-.281.363 1.167 1.167 0 000 .914c.062.148.156.27.281.363l4.5 4.125a1.07 1.07 0 00.75.305c.313 0 .578-.11.797-.328.219-.219.328-.485.328-.797a1.14 1.14 0 00-.094-.469.879.879 0 00-.281-.351l-3.586-3.305 3.586-3.305a.879.879 0 00.281-.351 1.14 1.14 0 00.094-.47c0-.312-.11-.577-.328-.796a1.085 1.085 0 00-.797-.328zM12 .88c-1.656 0-3.21.312-4.664.937a12.007 12.007 0 00-3.832 2.567A12.007 12.007 0 00.937 8.216C.313 9.669 0 11.224 0 12.88c0 1.656.313 3.21.938 4.664a12.007 12.007 0 002.566 3.832 12.008 12.008 0 003.832 2.566c1.453.625 3.008.938 4.664.938 1.656 0 3.21-.313 4.664-.938a12.008 12.008 0 003.832-2.566 12.008 12.008 0 002.567-3.832c.625-1.453.937-3.008.937-4.664 0-1.656-.313-3.211-.938-4.664a12.008 12.008 0 00-2.566-3.832 12.007 12.007 0 00-3.832-2.567C15.211 1.192 13.656.88 12 .88zm0 21.75a9.428 9.428 0 01-3.797-.774 9.626 9.626 0 01-3.105-2.074 9.625 9.625 0 01-2.075-3.105 9.43 9.43 0 01-.773-3.797c0-1.344.258-2.61.773-3.797a9.833 9.833 0 012.075-3.094 9.532 9.532 0 013.105-2.086A9.43 9.43 0 0112 3.13a9.43 9.43 0 013.797.773 9.532 9.532 0 013.105 2.086 9.832 9.832 0 012.075 3.094 9.43 9.43 0 01.773 3.797 9.43 9.43 0 01-.773 3.797 9.624 9.624 0 01-2.075 3.105 9.625 9.625 0 01-3.105 2.074A9.428 9.428 0 0112 22.63z" fill="#AAA"/></svg>