<svg width="50" height="40" fill="none" xmlns="http://www.w3.org/2000/svg"><path d="M38.75 17.5C44.922 17.5 50 22.578 50 28.75 50 35 44.922 40 38.75 40 32.5 40 27.5 35 27.5 28.75c0-6.172 5-11.25 11.25-11.25zm5 11.797V28.28c0-.39-.39-.781-.781-.781H40V23.28c0-.39-.39-.703-.781-.703h-1.016a.7.7 0 00-.703.703v6.016a.7.7 0 00.703.703h4.766c.39 0 .781-.313.781-.703zM38.75 15c-2.969 0-5.703.938-7.89 2.5H0v-6.25C0 9.297 1.719 7.5 3.75 7.5H10V3.75C10 1.797 11.719 0 13.75 0h12.5C28.203 0 30 1.797 30 3.75V7.5h6.25c1.953 0 3.75 1.797 3.75 3.75v3.828c-.469 0-.86-.078-1.25-.078zM25 7.5V5H15v2.5h10zm.469 17.5c-.313 1.25-.469 2.5-.469 3.75 0 2.266.547 4.375 1.484 6.25H3.75C1.719 35 0 33.281 0 31.25V20h15v3.75c0 .703.547 1.25 1.25 1.25h9.219z" fill="#0B66C3"/></svg>