<svg width="50" height="30" fill="none" xmlns="http://www.w3.org/2000/svg"><path d="M25 6.25c4.14 0 7.5 3.984 7.5 8.75 0 4.844-3.36 8.75-7.5 8.75-4.219 0-7.5-3.906-7.5-8.75 0-4.766 3.281-8.75 7.5-8.75zm3.125 13.125v-1.25c0-.313-.313-.625-.625-.625h-1.25v-6.875c0-.313-.313-.625-.625-.625h-1.094c-.39 0-.781.156-1.015.39l-1.25.782c-.157.078-.235.312-.235.469 0 .156 0 .312.078.39l.703 1.016c.079.156.313.312.547.312.078 0 .235-.078.313-.156h.078V17.5H22.5a.616.616 0 00-.625.625v1.25c0 .39.234.625.625.625h5a.616.616 0 00.625-.625zM47.5 0C48.828 0 50 1.172 50 2.5v25c0 1.406-1.172 2.5-2.5 2.5h-45A2.468 2.468 0 010 27.5v-25C0 1.172 1.094 0 2.5 0h45zm-1.25 21.25V8.75c-2.813 0-5-2.188-5-5H8.75c0 2.813-2.266 5-5 5v12.5c2.734 0 5 2.266 5 5h32.5c0-2.734 2.188-5 5-5z" fill="#0B66C3"/></svg>