<svg width="41" height="42" fill="none" xmlns="http://www.w3.org/2000/svg"><path d="M23.5 14.125c-3.984-.86-7.578-2.89-10.234-5.86a20.722 20.722 0 013.828-6.796c.625-.782 1.953-.39 2.11.625.546 3.594 2.03 6.953 4.296 9.844v2.187zM32.25 6H41l-2.5 5v12.578C38.5 30.453 32.875 36 26 36h-6.016l-5.156 4.453c-.469.39-1.094.625-1.719.547-7.187-.234-10.546-3.828-11.953-5.938-.468-.703-.078-1.718.782-1.874l11.25-2.813c-1.016-.781-2.032-1.563-3.047-2.578C6.156 23.969 3.5 18.812 3.5 13.266c0-3.204.703-6.329 2.031-9.063.39-.937 1.797-.86 2.266.078 3.125 7.11 10 12.188 18.203 12.657v-4.61C26 8.813 28.734 6 32.25 6zm0 7.578c.625 0 1.25-.625 1.25-1.25 0-.703-.625-1.25-1.25-1.25-.703 0-1.25.547-1.25 1.25 0 .625.547 1.25 1.25 1.25z" fill="#0B66C3"/></svg>