<svg width="52" height="42" fill="none" xmlns="http://www.w3.org/2000/svg"><path d="M39.125 16c1.016 0 1.875.86 1.875 1.875v3.75c0 1.094-.86 1.875-1.875 1.875H38.5v5c0 1.406-1.172 2.5-2.5 2.5h-1.25c0 2.813-2.266 5-5 5H19.047L11 40.688c-1.25.703-2.734.312-3.438-.938l-6.25-10.781C.61 27.797 1 26.234 2.25 25.53l6.25-3.593v-3.672c0-1.797.86-3.438 2.422-4.297L16 10.922v9.453C16 23.5 18.5 26 21.625 26c3.047 0 5.625-2.5 5.625-5.625V16h11.875zm11.484-2.89a2.528 2.528 0 01-.859 3.437L43.5 20.14v-2.266c0-2.344-2.031-4.375-4.375-4.375H24.75v6.875c0 1.797-1.406 3.125-3.125 3.125-1.797 0-3.125-1.328-3.125-3.125V10.53c0-.86.39-1.64 1.172-2.11l2.578-1.64c.781-.467 1.719-.78 2.656-.78h7.969L41 1.39c1.172-.702 2.656-.312 3.36.86l6.25 10.86z" fill="#0B66C3"/></svg>