<svg width="24" height="36" fill="none" xmlns="http://www.w3.org/2000/svg"><g clip-path="url(#clip0_422_446)"><g clip-path="url(#clip1_422_446)"><path d="M9.804 7.8l-2.688 5.688-6 .912c-.32.032-.588.192-.804.48-.216.288-.32.616-.312.984.008.368.14.68.396.936l4.32 4.392-1.008 6.312c-.064.352 0 .668.192.948.192.28.452.464.78.552.328.088.636.052.924-.108l5.4-2.808 5.4 2.808c.32.16.644.196.972.108a1.24 1.24 0 00.756-.552c.176-.28.232-.596.168-.948l-.984-6.312 4.296-4.392a1.29 1.29 0 00.396-.912 1.54 1.54 0 00-.3-.96 1.261 1.261 0 00-.792-.528l-6-.912L12.204 7.8c-.16-.32-.4-.54-.72-.66-.32-.12-.64-.12-.96 0-.32.12-.56.34-.72.66z" fill="#0B66C3"/></g></g><g clip-path="url(#clip2_422_446)"><path d="M20.93 14.4l-6-.912L12.218 7.8c-.16-.32-.4-.54-.72-.66-.32-.12-.64-.12-.96 0-.32.12-.56.34-.72.66L7.13 13.488l-6 .912a1.333 1.333 0 00-.84.492 1.31 1.31 0 00-.288.9c.016.336.152.64.408.912l4.32 4.392-1.008 6.216c-.064.352.004.672.204.96.2.288.46.48.78.576.32.096.624.048.912-.144l5.4-2.904 5.4 2.904c.32.16.644.196.972.108a1.24 1.24 0 00.756-.552c.176-.28.232-.596.168-.948l-.984-6.216 4.296-4.392a1.29 1.29 0 00.396-.912 1.443 1.443 0 00-.3-.936 1.104 1.104 0 00-.792-.456zm-5.808 6l1.008 5.904-5.112-2.808-5.088 2.808.984-5.904-4.104-4.2 5.712-.912 2.496-5.28 2.592 5.4 5.712.888-4.2 4.104z" fill="#CCD6DF"/></g><defs><clipPath id="clip0_422_446"><path fill="#fff" d="M0 0h24v36H0z"/></clipPath><clipPath id="clip1_422_446"><path fill="#fff" transform="matrix(1 0 0 -1 0 36)" d="M0 0h24v36H0z"/></clipPath><clipPath id="clip2_422_446"><path fill="#fff" transform="matrix(1 0 0 -1 0 30)" d="M0 0h24v24H0z"/></clipPath></defs></svg>